<?xml version="1.0" encoding="UTF-8" standalone="no"?>
<svg xmlns="http://www.w3.org/2000/svg" width="1024" height="1024" viewBox="174.5 65.5 666.0 666.0">
  <path d="M 483.0 637.5 L 469.0 637.5 L 449.0 630.5 L 437.5 611.0 L 428.0 602.5 L 417.0 596.5 L 402.0 593.5 L 383.0 593.5 L 348.0 597.5 L 348.5 607.0 L 342.0 607.5 L 310.0 599.5 L 285.0 585.5 L 266.5 568.0 L 255.0 550.5 L 247.0 550.5 L 243.0 548.5 L 231.5 536.0 L 222.5 517.0 L 217.5 499.0 L 218.0 494.5 L 229.5 490.0 L 227.0 485.5 L 212.0 488.5 L 202.5 477.0 L 194.5 457.0 L 194.5 443.0 L 200.0 436.5 L 213.0 428.5 L 271.0 400.5 L 312.5 375.0 L 304.5 367.0 L 307.5 308.0 L 329.0 288.5 L 356.0 284.5 L 372.0 268.5 L 397.0 249.5 L 435.0 228.5 L 477.0 213.5 L 515.0 205.5 L 480.5 205.0 L 494.0 189.5 L 503.0 183.5 L 520.0 176.5 L 537.0 175.5 L 547.0 179.5 L 562.0 195.5 L 609.0 195.5 L 606.0 221.5 L 621.5 196.0 L 636.0 181.5 L 633.5 194.0 L 634.5 197.0 L 637.5 198.0 L 645.5 188.0 L 643.5 180.0 L 639.5 179.0 L 653.0 168.5 L 667.0 162.5 L 681.0 159.5 L 699.0 159.5 L 711.0 162.5 L 727.0 171.5 L 737.5 182.0 L 744.5 193.0 L 749.5 209.0 L 749.5 231.0 L 747.5 241.0 L 738.5 264.0 L 724.5 286.0 L 726.0 286.5 L 744.0 273.5 L 754.5 284.0 L 774.5 310.0 L 794.5 345.0 L 809.5 385.0 L 820.5 436.0 L 794.0 422.5 L 793.5 424.0 L 815.5 477.0 L 820.5 494.0 L 794.5 530.0 L 766.0 558.5 L 735.0 581.5 L 697.0 601.5 L 675.0 609.5 L 651.0 615.5 L 630.0 618.5 L 607.5 618.0 L 631.0 602.5 L 641.0 592.5 L 626.0 600.5 L 600.0 609.5 L 581.0 613.5 L 561.0 612.5 L 523.0 628.5 Z M 718.5 258.0 L 730.5 233.0 L 731.5 210.0 L 724.5 194.0 L 715.0 184.5 L 703.0 178.5 L 679.0 177.5 L 658.0 186.5 L 638.5 203.0 L 622.5 228.0 L 622.5 230.0 L 646.0 252.5 L 646.5 234.0 L 650.5 224.0 L 657.5 214.0 L 673.0 199.5 L 684.0 194.5 L 696.0 194.5 L 711.0 201.5 L 716.5 207.0 L 720.5 215.0 L 722.5 231.0 L 716.5 258.0 Z M 389.5 278.0 L 439.0 274.5 L 490.0 267.5 L 508.0 254.5 L 539.0 236.5 L 573.0 221.5 L 590.0 216.5 L 593.5 214.0 L 593.5 211.0 L 546.0 211.5 L 517.0 217.5 L 478.0 228.5 L 449.0 239.5 L 423.0 252.5 L 395.0 271.5 L 388.5 277.0 Z M 600.5 359.0 L 604.5 356.0 L 604.5 296.0 L 582.0 275.5 L 545.0 274.5 L 564.5 295.0 L 564.5 359.0 Z M 491.5 404.0 L 548.5 366.0 L 548.5 299.0 L 524.0 277.5 L 438.0 282.5 L 369.0 291.5 L 335.0 297.5 L 322.5 309.0 L 323.5 317.0 L 328.0 317.5 L 410.0 305.5 L 516.0 296.5 L 529.5 309.0 L 528.5 357.0 L 485.0 387.5 L 398.0 385.5 L 358.0 358.5 L 325.0 361.5 L 321.5 366.0 L 325.0 371.5 L 354.0 370.5 L 392.0 398.5 Z M 717.5 305.0 L 720.5 302.0 L 714.0 298.5 L 662.0 287.5 L 608.5 280.0 L 621.0 293.5 Z M 585.0 314.5 L 581.0 313.5 L 576.5 308.0 L 577.5 303.0 L 583.0 298.5 L 590.0 300.5 L 592.5 304.0 L 591.5 311.0 Z M 774.5 478.0 L 779.5 444.0 L 779.5 416.0 L 775.5 390.0 L 794.5 400.0 L 776.5 350.0 L 762.5 322.0 L 750.0 303.5 L 764.5 352.0 L 774.5 375.0 L 773.0 375.5 L 759.5 365.0 L 768.5 405.0 Z M 630.5 352.0 L 655.0 349.5 L 715.0 349.5 L 717.5 347.0 L 715.0 343.5 L 684.0 339.5 L 680.5 338.0 L 680.5 335.0 L 682.0 333.5 L 715.0 331.5 L 721.0 329.5 L 721.5 327.0 L 717.0 324.5 L 654.0 323.5 L 653.5 319.0 L 656.0 317.5 L 687.5 313.0 L 623.0 304.5 L 621.5 306.0 L 621.5 352.0 Z M 425.5 379.0 L 432.5 372.0 L 466.5 320.0 L 470.5 313.0 L 469.0 309.5 L 453.0 311.5 L 444.5 320.0 L 410.5 377.0 L 415.0 379.5 Z M 441.5 378.0 L 462.5 345.0 L 473.0 323.5 L 434.5 377.0 L 435.0 378.5 Z M 350.5 355.0 L 354.5 352.0 L 365.5 331.0 L 365.5 329.0 L 361.0 325.5 L 357.0 326.5 L 352.5 331.0 L 340.5 354.0 L 342.0 355.5 Z M 586.0 346.5 L 579.0 344.5 L 576.5 341.0 L 577.5 334.0 L 583.0 330.5 L 590.0 332.5 L 593.5 339.0 L 591.5 343.0 Z M 528.5 600.0 L 560.0 588.5 L 596.0 568.5 L 584.0 596.5 L 609.0 584.5 L 633.0 569.5 L 652.0 554.5 L 669.5 537.0 L 680.5 523.0 L 691.5 505.0 L 702.0 475.5 L 719.5 511.0 L 721.5 511.0 L 729.5 458.0 L 728.5 421.0 L 747.0 440.5 L 751.5 441.0 L 736.5 403.0 L 717.0 367.5 L 715.5 368.0 L 716.5 408.0 L 713.5 465.0 L 698.0 437.5 L 688.5 471.0 L 675.5 499.0 L 656.5 526.0 L 635.0 547.5 L 614.0 563.5 L 612.5 563.0 L 625.5 534.0 L 627.5 527.0 L 625.0 526.5 L 585.0 561.5 Z M 561.5 455.0 L 569.5 448.0 L 580.0 434.5 L 612.0 428.5 L 629.0 405.5 L 686.0 389.5 L 679.5 373.0 L 658.0 376.5 L 630.0 376.5 L 597.0 401.5 L 572.0 414.5 L 531.0 431.5 L 501.5 440.0 L 509.0 452.5 Z M 493.5 428.0 L 506.0 426.5 L 522.0 419.5 L 554.0 395.5 L 555.5 391.0 L 552.5 378.0 L 551.0 377.5 L 535.5 390.0 L 539.0 389.5 L 549.0 382.5 L 550.5 383.0 L 550.0 389.5 L 532.0 396.5 L 497.0 418.5 L 477.0 420.5 L 452.5 420.0 L 455.0 422.5 L 472.0 427.5 Z M 363.5 551.0 L 455.5 500.0 L 446.5 487.0 L 441.5 473.0 L 441.5 458.0 L 444.5 450.0 L 358.0 384.5 L 352.0 380.5 L 344.0 380.5 L 274.0 411.5 L 261.5 419.0 L 288.0 424.5 L 303.0 434.5 L 310.5 447.0 L 311.0 463.5 L 369.0 440.5 L 372.0 441.5 L 372.5 444.0 L 275.0 492.5 L 269.5 498.0 L 269.5 504.0 L 279.0 535.5 L 283.0 537.5 L 329.0 542.5 Z M 276.5 447.0 L 283.5 441.0 L 281.0 437.5 L 258.0 431.5 L 242.0 431.5 L 228.0 434.5 L 213.0 441.5 L 207.5 447.0 L 229.0 441.5 L 255.0 441.5 Z M 263.5 497.0 L 268.5 492.0 L 259.0 488.5 L 251.5 481.0 L 249.0 471.5 L 242.0 472.5 L 240.5 480.0 L 243.5 486.0 L 252.0 493.5 Z M 677.5 596.0 L 725.5 546.0 L 737.5 530.0 L 751.5 500.0 L 755.5 484.0 L 756.0 471.5 L 739.5 507.0 L 729.5 522.0 L 713.0 541.5 L 713.5 526.0 L 711.0 522.5 L 709.5 524.0 L 699.5 555.0 Z M 331.5 574.0 L 344.0 570.5 L 349.5 566.0 L 337.0 560.5 L 318.0 555.5 L 299.0 552.5 L 284.5 553.0 L 296.0 565.5 L 305.0 571.5 L 315.0 574.5 Z M 472.5 615.0 L 453.5 583.0 L 470.0 571.5 L 472.5 569.0 L 471.0 567.5 L 421.5 580.0 L 450.0 598.5 L 471.0 615.5 Z" fill="currentColor" fill-rule="evenodd" />
</svg>